<svg xmlns="http://www.w3.org/2000/svg" viewBox="0 0 736 736" width="100%">
<path fill="#643FB0" d="M406,737C270.7,737 135.8,737 1,737C1,491.7 1,246.3 1,1C246.3,1 491.7,1 737,1C737,246.3 737,491.7 737,737C626.8,737 516.7,737 406,737M294.2,162C293.5,162 292.7,162 291.1,162C282.4,164.3 273.7,166.5 264.2,168.9C260.1,170.2 255.6,170.9 252,173.1C240.6,180 229.4,187.1 218.5,194.7C213.3,198.4 208.4,203 204.4,208C195,219.6 186.5,231.8 180.2,245.5C173.9,259.6 168.7,274.2 168.4,289.5C167.6,324.7 167.9,359.9 168.3,395C168.4,401.1 170.6,407.3 172.7,413.2C175.9,422.2 182.4,429.1 189.4,435.3C192.5,438.1 197.2,439 201.7,440.9C201.7,440.9 202,441.1 202.2,441.8C206.6,446.3 212.4,446.1 218.7,447.2C220.5,447.5 222.3,447.9 224.1,447.9C312.8,447.9 401.6,448.1 490.3,447.6C500.6,447.6 510.8,443.9 521.8,441.9C529.9,439.6 538.1,438 545.6,433.3C555.5,427 566.7,422.9 574.9,414C575,413.9 575.2,413.9 575.3,413.7C583,406 591.6,398.9 598.2,390.4C604,382.9 607.5,373.6 612.3,365.3C619,353.7 621.3,340.7 623.7,327.8C626.2,315.1 627.4,302 624.9,289.1C622.4,276.8 620.2,264.2 616,252.3C610.2,235.9 601,221.2 589,208.4C575.3,193.7 560.5,180.5 540.7,173.3C539.4,172.9 538.2,172.4 536.5,171.4C532.6,170.1 528.7,169 524.9,167.3C513.5,162.3 501.3,161.4 488.1,161C425.4,161 362.6,161 299.2,161.1C297.8,161.4 296.4,161.7 294.2,162M193.5,617.2C195.3,617.4 197.1,618 198.9,618C255.6,618 312.3,618 369,617.9C370.9,617.9 372.9,616.8 375.5,615.9C390.5,610.4 398.8,597.8 396.5,584.2C394,569.9 382.5,560 367.8,560C311.1,559.9 254.3,559.9 197.5,560C176.7,560.1 163.4,581.9 172.4,600.6C176.6,609.4 183.9,614 193.5,617.2z"/>
<path fill="#FDFDFE" d="M202,441.1C202,441.1 201.7,440.9 201.3,440.6C179.8,428.4 169.4,410.5 169.6,386.2C169.8,358.2 169.1,330.2 169.8,302.2C171,254.3 191.3,215.8 230.6,188.2C241.5,180.5 254.2,175.3 266.4,169C275.2,167.1 283.6,165.2 292.5,163.4C293.6,163.3 294.3,163.1 295.3,163.1C297.1,163 298.6,162.7 300.4,162.6C301.3,162.5 301.9,162.3 302.6,162.3C303.3,162.3 303.8,162.2 304.5,162.2C305.1,162.2 305.5,162.2 306.2,162.2C364.1,162.3 421.5,162.3 479,162.3C483.6,162.3 488.3,162.5 492.9,162.8C508.2,163.8 522.7,167.9 537.2,173.3C538.6,174 539.8,174.5 541.2,175.2C545.7,177.7 550.1,179.7 554.2,182.3C594.8,207.6 618.7,243.8 623,291.7C627.2,338 611.3,377 577.6,408.9C561.4,424.2 542.1,434.3 520.6,441C507.4,445.3 494.2,446.1 480.9,446.1C404.4,446.1 328,446.1 251.5,446.1C240.4,446.1 229.2,445.9 217.7,445.6C212.3,444 207.1,442.6 202,441.1M229.8,279.4C228.5,287.8 226.5,296.1 226.3,304.5C225.7,322.2 226.8,339.9 225.9,357.5C224.9,376.1 239.2,389.8 257.8,389.6C331.9,389.1 406.1,389.4 480.2,389.4C532.9,389.4 571.5,346.7 566.3,294.3C562.1,253.3 525.9,219.4 484.8,219.1C425.9,218.7 367.1,218.8 308.3,219.1C273,219.4 240.2,244.9 229.8,279.4z"/>
<path fill="#FEFDFE" d="M192.8,616.7C183.9,614 176.6,609.4 172.4,600.6C163.4,581.9 176.7,560.1 197.5,560C254.3,559.9 311.1,559.9 367.8,560C382.5,560 394,569.9 396.5,584.2C398.8,597.8 390.5,610.4 374.7,616C372,616.4 370,616.8 368,616.8C309.6,616.8 251.2,616.7 192.8,616.7z"/>
<path fill="#6F59A5" d="M521,441C542.1,434.3 561.4,424.2 577.6,408.9C611.3,377 627.2,338 623,291.7C618.7,243.8 594.8,207.6 554.2,182.3C550.1,179.7 545.7,177.7 541.2,174.9C541,174.2 541,174.1 541,173.9C560.5,180.5 575.3,193.7 589,208.4C601,221.2 610.2,235.9 616,252.3C620.2,264.2 622.4,276.8 624.9,289.1C627.4,302 626.2,315.1 623.7,327.8C621.3,340.7 619,353.7 612.3,365.3C607.5,373.6 604,382.9 598.2,390.4C591.6,398.9 583,406 575.3,413.7C575.2,413.9 575,413.9 574.9,414C566.7,422.9 555.5,427 545.6,433.3C538.1,438 529.9,439.6 521.4,441.7C521,441.5 521,441 521,441z"/>
<path fill="#7A65AC" d="M266,169C254.2,175.3 241.5,180.5 230.6,188.2C191.3,215.8 171,254.3 169.8,302.2C169.1,330.2 169.8,358.2 169.6,386.2C169.4,410.5 179.8,428.4 201.1,440.5C197.2,439 192.5,438.1 189.4,435.3C182.4,429.1 175.9,422.2 172.7,413.2C170.6,407.3 168.4,401.1 168.3,395C167.9,359.9 167.6,324.7 168.4,289.5C168.7,274.2 173.9,259.6 180.2,245.5C186.5,231.8 195,219.6 204.4,208C208.4,203 213.3,198.4 218.5,194.7C229.4,187.1 240.6,180 252,173.1C255.6,170.9 260.1,170.2 264.8,168.9C265.7,168.9 265.9,169 266,169z"/>
<path fill="#765FA7" d="M520.6,441C521,441 521,441.5 521,441.7C510.8,443.9 500.6,447.6 490.3,447.6C401.6,448.1 312.8,447.9 224.1,447.9C222.3,447.9 220.5,447.5 218.3,446.8C218,446.1 218,446 218.1,445.8C229.2,445.9 240.4,446.1 251.5,446.1C328,446.1 404.4,446.1 480.9,446.1C494.2,446.1 507.4,445.3 520.6,441z"/>
<path fill="#6F59A5" d="M537,173.1C522.7,167.9 508.2,163.8 492.9,162.8C488.3,162.5 483.6,162.3 479,162.3C421.5,162.3 364.1,162.3 306.7,162.1C309.8,161.9 312.8,161.8 315.8,161.8C371.2,161.8 426.7,161.8 482.1,161.8C484.4,161.8 486.7,161.3 489,161C501.3,161.4 513.5,162.3 524.9,167.3C528.7,169 532.6,170.1 536.8,172C537,172.7 537,172.9 537,173.1z"/>
<path fill="#604A94" d="M488.6,161C486.7,161.3 484.4,161.8 482.1,161.8C426.7,161.8 371.2,161.8 315.8,161.8C312.8,161.8 309.8,161.9 306.3,162C305.5,162.2 305.1,162.2 304.1,162.2C303,162.1 302.7,162.1 302.4,162.1C301.9,162.3 301.3,162.5 300.4,162.2C300,161.5 299.9,161.3 299.9,161.1C362.6,161.1 425.4,161 488.6,161z"/>
<path fill="#5F4795" d="M193.2,616.9C251.2,616.7 309.6,616.8 368,616.8C370,616.8 372,616.4 374.5,616.2C372.9,616.8 370.9,617.9 369,617.9C312.3,618 255.6,618 198.9,618C197.1,618 195.3,617.4 193.2,616.9z"/>
<path fill="#6F59A5" d="M266.4,169C265.9,169 265.7,168.9 265.2,168.8C273.7,166.5 282.4,164.3 291.6,162.4C292.1,162.9 292.1,163.1 292.1,163.3C283.6,165.2 275.2,167.1 266.4,169z"/>
<path fill="#7A65AC" d="M217.7,445.6C218,446 218,446.1 218,446.6C212.4,446.1 206.6,446.3 202.1,441.4C207.1,442.6 212.3,444 217.7,445.6z"/>
<path fill="#6F59A5" d="M299.5,161.1C299.9,161.3 300,161.5 300.1,162.2C298.6,162.7 297.1,163 295.3,162.8C295,162.3 295,162.1 295,162C296.4,161.7 297.8,161.4 299.5,161.1z"/>
<path fill="#604A94" d="M537.2,173.3C537,172.9 537,172.7 537,172.2C538.2,172.4 539.4,172.9 540.8,173.6C541,174.1 541,174.2 541,174.7C539.8,174.5 538.6,174 537.2,173.3z"/>
<path fill="#604A94" d="M294.6,162C295,162.1 295,162.3 295,162.7C294.3,163.1 293.6,163.3 292.5,163.4C292.1,163.1 292.1,162.9 292,162.3C292.7,162 293.5,162 294.6,162z"/>
<path fill="#6440B0" d="M229.9,279C240.2,244.9 273,219.4 308.3,219.1C367.1,218.8 425.9,218.7 484.8,219.1C525.9,219.4 562.1,253.3 566.3,294.3C571.5,346.7 532.9,389.4 480.2,389.4C406.1,389.4 331.9,389.1 257.8,389.6C239.2,389.8 224.9,376.1 225.9,357.5C226.8,339.9 225.7,322.2 226.3,304.5C226.5,296.1 228.5,287.8 229.9,279z"/>
<path fill="#6F59A5" d="M302.6,162.3C302.7,162.1 303,162.1 303.8,162.1C303.8,162.2 303.3,162.3 302.6,162.3z"/>
</svg>
